<?xml version="1.0" standalone="no"?>
<!DOCTYPE svg PUBLIC "-//W3C//DTD SVG 20010904//EN"
 "http://www.w3.org/TR/2001/REC-SVG-20010904/DTD/svg10.dtd">
<svg version="1.0" xmlns="http://www.w3.org/2000/svg"
 width="1871.000000pt" height="631.000000pt" viewBox="0 0 1871.000000 631.000000"
 preserveAspectRatio="xMidYMid meet">

<g transform="translate(0.000000,631.000000) scale(0.100000,-0.100000)"
fill="#000000" stroke="none">
<path d="M0 3155 l0 -3155 3155 0 3155 0 0 733 c0 557 -3 736 -12 745 -9 9 -9
12 3 12 12 0 12 1 -1 9 -8 6 -18 7 -23 4 -5 -3 -6 5 -3 18 3 13 3 18 0 11 -3
-6 -11 -9 -16 -6 -7 5 -8 2 -3 -5 6 -10 3 -11 -15 -1 -18 10 -20 14 -9 21 10
6 6 11 -18 19 -37 13 -49 36 -26 48 13 8 12 10 -6 15 -19 5 -26 -3 -22 -25 0
-4 -6 -5 -15 -1 -11 4 -12 9 -5 16 16 16 13 37 -3 31 -9 -3 -18 5 -24 23 -6
15 -11 22 -11 16 -1 -7 -5 -13 -11 -13 -5 0 -7 7 -3 16 7 20 -18 38 -29 21 -5
-8 -8 -4 -8 11 0 16 -6 22 -21 22 -15 0 -19 5 -15 15 4 11 -3 17 -24 22 -21 4
-30 11 -30 25 0 10 -9 28 -20 40 -10 12 -17 26 -13 32 3 7 1 6 -7 -1 -10 -9
-16 -8 -27 3 -8 8 -19 11 -25 8 -6 -4 -6 1 1 14 9 16 7 21 -9 25 -12 3 -21 -1
-23 -12 -4 -14 -5 -14 -6 1 0 9 3 20 9 23 5 3 10 11 10 16 0 6 -5 7 -10 4 -6
-3 -10 -1 -10 6 0 8 -5 8 -16 -2 -14 -11 -19 -10 -35 10 -20 25 -26 46 -9 36
6 -3 10 -1 10 4 0 15 -13 14 -29 -1 -10 -11 -11 -9 -5 6 6 15 4 18 -9 13 -9
-3 -19 -1 -23 5 -4 7 -3 8 4 4 8 -5 12 0 12 13 0 19 -10 26 -33 22 -4 -1 -14
13 -21 30 -9 21 -15 27 -19 18 -4 -10 -6 -9 -6 4 -1 9 -8 17 -16 17 -15 0 -18
9 -16 40 0 10 -1 11 -5 3 -4 -9 -11 -10 -25 -2 -11 5 -25 7 -31 3 -7 -4 -8 -3
-4 4 4 7 1 12 -6 12 -10 1 -9 4 2 13 20 16 24 38 5 31 -8 -4 -12 -11 -9 -16 4
-6 -5 -3 -18 6 -14 9 -28 13 -31 9 -4 -3 -7 1 -7 9 0 9 5 18 12 20 9 3 9 6 0
12 -7 4 -12 2 -12 -3 0 -6 -5 -11 -11 -11 -5 0 -7 5 -4 10 3 6 -1 10 -9 10 -8
0 -18 5 -22 12 -4 7 -3 8 4 4 7 -4 12 -3 12 1 0 5 -9 14 -20 21 -11 7 -20 17
-20 23 0 20 -38 61 -43 47 -3 -7 -6 -2 -6 12 -1 20 -3 22 -11 10 -9 -13 -10
-13 -10 0 0 13 -1 13 -10 0 -5 -8 -7 -24 -4 -35 3 -12 -2 -9 -11 8 -15 26 -15
30 -1 46 16 18 10 34 -14 39 -8 2 -22 10 -31 18 -13 12 -18 12 -21 2 -3 -7 -7
-3 -10 10 -4 12 -2 20 3 16 5 -3 9 -3 9 0 0 3 -13 12 -29 21 -21 10 -29 21
-27 38 2 15 -3 23 -13 24 -60 5 -61 6 -46 29 13 20 12 23 -1 28 -12 5 -15 2
-10 -10 4 -10 2 -14 -6 -11 -7 2 -12 10 -10 17 2 7 -5 9 -20 5 -19 -5 -20 -4
-8 5 11 9 12 13 3 17 -7 2 -13 12 -13 21 0 8 -3 13 -6 9 -3 -3 -17 6 -30 20
-12 13 -28 22 -33 18 -6 -3 -11 -1 -11 5 0 6 -7 18 -15 27 -8 8 -12 19 -9 25
5 7 2 8 -5 4 -7 -5 -10 -15 -7 -23 3 -8 1 -11 -5 -8 -6 4 -7 20 -4 38 7 31 6
31 -10 12 -9 -11 -13 -14 -9 -6 5 10 3 13 -9 8 -17 -6 -30 16 -17 29 5 5 5 15
-1 24 -9 13 -10 12 -5 -2 3 -12 0 -18 -10 -18 -10 0 -13 8 -10 26 3 15 2 23
-2 19 -4 -3 -7 -11 -7 -16 0 -5 -4 -8 -10 -6 -5 1 -8 13 -6 27 2 20 0 22 -11
12 -23 -18 -62 13 -48 39 10 18 6 23 -12 20 -5 0 -8 3 -8 8 0 5 -9 12 -19 16
-16 5 -18 11 -11 35 5 18 5 30 -1 30 -5 0 -9 -7 -9 -16 0 -17 -21 -16 -22 1
-1 6 -8 15 -16 21 -14 10 -14 17 -3 54 7 23 10 45 7 48 -3 3 1 16 10 30 14 22
14 25 0 41 -9 10 -13 21 -9 26 5 4 3 5 -4 2 -17 -10 -43 3 -43 22 0 10 14 30
30 46 29 27 35 53 17 66 -5 3 -2 9 7 12 12 5 16 0 16 -15 0 -40 31 4 37 53 3
24 13 53 22 64 15 18 15 19 -1 6 -16 -12 -18 -11 -18 9 0 13 3 20 7 17 8 -9
53 32 53 47 0 6 -5 4 -11 -4 -9 -12 -10 -11 -4 5 6 17 11 36 14 55 1 3 6 -2
11 -10 8 -13 10 -12 10 4 0 11 11 34 26 53 23 30 23 38 0 34 -5 -1 5 14 23 34
17 20 29 40 26 46 -4 5 0 9 8 9 15 0 27 20 27 43 0 7 -4 6 -10 -3 -5 -8 -10
-11 -10 -6 0 6 11 22 25 36 14 15 27 36 30 48 2 12 6 26 9 31 3 5 12 33 20 62
8 30 17 63 21 74 6 16 5 17 -4 5 -14 -19 -14 -9 -1 25 12 30 16 174 6 220 -3
17 -13 66 -21 109 -8 43 -22 87 -31 97 -9 10 -13 23 -9 28 3 6 2 11 -3 11 -4
0 -15 15 -24 33 -25 52 -94 133 -151 177 -81 63 -83 65 -98 68 -8 2 -24 10
-36 18 -13 8 -24 14 -25 13 -2 -1 -22 8 -45 20 -24 12 -43 18 -43 14 0 -4 -5
-2 -12 5 -7 7 -23 12 -36 12 -13 0 -21 4 -17 9 3 6 -3 10 -12 10 -10 0 -38 5
-63 11 -56 14 -138 29 -167 32 -13 1 -23 5 -23 8 0 3 -31 5 -69 5 -39 -1 -68
2 -65 7 3 4 -7 8 -23 9 -15 0 -37 2 -48 4 -34 7 -157 18 -215 20 -99 3 -111 5
-106 13 3 5 -12 8 -32 7 -20 -1 -41 1 -47 5 -16 11 -65 18 -59 9 3 -5 1 -9 -5
-9 -5 0 -12 6 -15 13 -5 10 -7 10 -12 0 -3 -7 -18 -13 -34 -13 -16 0 -30 6
-33 13 -3 9 -8 8 -22 -3 -11 -9 -16 -10 -11 -2 5 8 0 12 -16 14 -13 0 -27 2
-33 3 -5 2 -14 4 -20 5 -5 1 -27 2 -47 2 -21 0 -40 3 -43 8 -3 4 -15 6 -27 2
-16 -4 -19 -2 -13 9 7 12 6 12 -7 1 -9 -7 -19 -9 -22 -4 -3 5 -19 7 -36 4 -19
-3 -30 0 -30 7 0 7 -4 9 -10 6 -5 -3 -10 -2 -10 3 0 6 -16 11 -35 11 -59 3
-64 4 -69 18 -3 7 -13 13 -21 13 -9 0 -14 4 -11 9 8 13 -67 20 -79 8 -7 -7 -5
-7 5 -2 12 6 12 5 3 -5 -9 -10 -15 -10 -28 4 -20 20 -22 20 -22 1 0 -8 4 -15
9 -15 5 0 3 -7 -6 -15 -20 -21 -22 -19 -20 13 2 25 -1 27 -40 29 -101 3 -144
8 -135 14 17 10 -18 31 -41 24 -11 -3 -20 -2 -20 3 0 6 12 13 26 16 25 7 25 8
9 25 -20 23 -37 21 -65 -4 l-21 -19 23 -13 c18 -9 19 -12 6 -13 -9 0 -20 5
-23 10 -4 6 -11 8 -16 5 -5 -3 -6 2 -2 11 4 12 3 15 -5 10 -7 -4 -12 -1 -12 8
0 8 -8 15 -17 15 -39 1 -83 14 -83 25 0 6 -5 4 -10 -4 -8 -12 -10 -11 -10 6 0
17 -5 20 -24 17 -25 -5 -60 24 -61 50 -1 6 -5 24 -9 40 -6 21 -11 25 -21 17
-8 -7 -21 -7 -38 -1 -25 10 -29 24 -14 49 5 8 2 12 -9 12 -12 0 -15 6 -11 21
4 16 3 18 -9 8 -11 -9 -15 -8 -20 5 -3 9 -12 16 -20 16 -8 0 -14 5 -14 11 0 5
-5 7 -12 3 -8 -5 -9 0 -6 14 6 22 4 23 -44 26 -9 1 -20 5 -25 10 -5 5 -1 6 10
3 15 -6 17 -3 11 15 -6 21 -6 22 12 8 18 -14 18 -14 5 3 -9 11 -17 14 -25 8
-8 -7 -16 -4 -24 10 -8 13 -20 18 -37 15 -18 -3 -22 -1 -18 11 4 11 2 14 -5 9
-7 -4 -12 -2 -12 3 0 6 5 11 10 11 6 0 10 5 10 11 0 6 -7 8 -16 5 -13 -5 -15
-1 -12 18 4 22 2 24 -24 21 -16 -2 -26 1 -23 6 4 5 0 9 -7 9 -10 0 -9 3 2 11
12 9 11 10 -7 6 -25 -5 -37 15 -20 32 8 8 6 11 -7 11 -10 0 -14 4 -10 12 4 7
3 8 -5 4 -6 -4 -9 -12 -6 -17 4 -5 -1 -9 -10 -9 -9 0 -13 5 -10 11 4 6 0 16
-9 22 -9 7 -18 22 -18 34 -1 13 -7 19 -15 16 -9 -4 -11 0 -7 13 6 18 6 18 -7
2 -12 -15 -17 -15 -32 -4 -10 8 -17 18 -16 22 4 21 -2 34 -14 34 -16 0 -63 60
-59 77 1 6 -3 15 -9 19 -8 4 -9 3 -5 -4 5 -8 0 -12 -13 -12 -18 0 -21 6 -19
33 2 22 -1 31 -11 29 -7 -1 -19 3 -27 9 -11 9 -14 8 -14 -6 0 -13 6 -16 23
-13 14 3 24 0 24 -7 0 -15 -47 -6 -54 11 -2 7 1 23 8 36 12 22 11 22 -6 8 -17
-14 -18 -13 -12 3 5 13 1 17 -17 17 -13 0 -27 7 -30 16 -3 8 -11 12 -17 8 -8
-4 -9 -3 -5 5 4 6 1 18 -7 26 -13 12 -118 15 -751 15 l-736 0 0 -3155z m1694
2909 c3 -8 1 -14 -4 -14 -6 0 -10 5 -10 11 0 5 -4 7 -10 4 -5 -3 -10 1 -10 9
0 18 26 11 34 -10z m96 -108 c-7 -7 -14 -6 -21 1 -9 9 -7 12 9 10 14 -1 18 -5
12 -11z m270 -247 c0 -6 -4 -7 -10 -4 -5 3 -10 11 -10 16 0 6 5 7 10 4 6 -3
10 -11 10 -16z m153 -159 c3 -12 0 -20 -7 -20 -6 0 -12 9 -13 20 -1 11 2 20 6
20 5 0 11 -9 14 -20z m100 -83 c3 -8 -1 -14 -8 -14 -7 0 -11 6 -8 14 3 7 6 13
8 13 2 0 5 -6 8 -13z m316 -138 c-8 -5 -17 -3 -21 4 -5 8 -8 6 -8 -5 0 -10 -4
-18 -10 -18 -13 0 -13 13 1 27 6 6 20 8 31 5 15 -3 16 -7 7 -13z m326 -119
c-3 -5 -14 -8 -25 -7 -10 1 -17 5 -14 9 3 4 12 4 21 1 12 -5 14 -3 8 7 -5 9
-4 11 4 6 6 -4 9 -11 6 -16z m55 0 c0 -5 -4 -10 -10 -10 -5 0 -10 5 -10 10 0
6 5 10 10 10 6 0 10 -4 10 -10z m1562 -472 c151 -71 241 -236 210 -384 -24
-118 -26 -119 -580 -675 l-524 -527 495 -493 c416 -415 499 -503 521 -549 91
-195 16 -420 -172 -512 -63 -31 -73 -33 -172 -33 -175 0 -144 -24 -719 552
l-494 494 -501 -499 c-541 -539 -541 -539 -671 -563 -114 -21 -236 20 -325
110 -63 63 -93 120 -109 206 -8 40 -11 447 -11 1293 0 1090 2 1241 16 1296 38
147 142 255 288 297 57 17 145 18 1376 16 l1315 -2 57 -27z m128 -1337 c7 -13
7 -22 0 -26 -5 -3 -10 -1 -10 4 0 6 -5 11 -11 11 -5 0 -7 -5 -3 -12 4 -7 3 -8
-4 -4 -18 11 -14 26 6 26 14 0 15 2 2 10 -9 6 -10 10 -3 10 7 0 17 -9 23 -19z
m-25 -170 c-3 -6 -14 -11 -23 -11 -13 0 -13 2 4 14 21 15 30 14 19 -3z m27
-17 c-5 -9 -7 -25 -5 -35 4 -13 0 -19 -11 -19 -19 0 -20 4 -5 33 10 21 10 21
-10 -1 -18 -21 -20 -21 -18 -3 0 11 4 18 8 15 4 -2 9 3 13 11 3 8 12 15 21 15
12 0 14 -4 7 -16z m345 -506 c-3 -8 -6 -5 -6 6 -1 11 2 17 5 13 3 -3 4 -12 1
-19z m354 -345 c13 -16 12 -17 -3 -4 -17 13 -22 21 -14 21 2 0 10 -8 17 -17z
m880 -876 c-6 -8 -7 -18 -3 -22 4 -5 1 -5 -6 -1 -10 6 -10 11 -1 22 6 8 14 14
16 14 3 0 0 -6 -6 -13z"/>
<path d="M2280 3423 l0 -588 585 585 c322 322 585 586 585 587 0 2 -263 3
-585 3 l-585 0 0 -587z"/>
<path d="M1527 6283 c-10 -9 -9 -23 1 -23 5 0 9 7 9 15 0 17 -1 18 -10 8z"/>
<path d="M2021 5764 c0 -11 3 -14 6 -6 3 7 2 16 -1 19 -3 4 -6 -2 -5 -13z"/>
<path d="M2350 5449 c0 -5 5 -7 10 -4 6 3 10 8 10 11 0 2 -4 4 -10 4 -5 0 -10
-5 -10 -11z"/>
<path d="M2345 5420 c3 -5 8 -10 11 -10 2 0 4 5 4 10 0 6 -5 10 -11 10 -5 0
-7 -4 -4 -10z"/>
<path d="M2370 5421 c0 -6 4 -13 10 -16 6 -3 7 1 4 9 -7 18 -14 21 -14 7z"/>
<path d="M3488 5133 c7 -3 16 -2 19 1 4 3 -2 6 -13 5 -11 0 -14 -3 -6 -6z"/>
<path d="M4895 3770 c-3 -6 1 -7 9 -4 18 7 21 14 7 14 -6 0 -13 -4 -16 -10z"/>
<path d="M4805 2961 c-3 -5 -1 -12 5 -16 5 -3 10 1 10 9 0 18 -6 21 -15 7z"/>
<path d="M5520 2276 c0 -8 4 -17 9 -20 5 -4 7 3 4 14 -6 23 -13 26 -13 6z"/>
<path d="M5716 2103 c-6 -14 -5 -15 5 -6 7 7 10 15 7 18 -3 3 -9 -2 -12 -12z"/>
<path d="M5780 1979 c0 -4 7 -9 15 -13 9 -3 15 0 15 8 0 7 -7 13 -15 13 -8 0
-15 -4 -15 -8z"/>
<path d="M5970 1800 c0 -5 5 -10 11 -10 5 0 7 5 4 10 -3 6 -8 10 -11 10 -2 0
-4 -4 -4 -10z"/>
</g>
</svg>
